HIERARCHY
ROOT Hips
{
  OFFSET 5.84602e-005 68.8428 3.50346
  CHANNELS 6 Xposition Yposition Zposition Zrotation Xrotation Yrotation
  JOINT Spine
  {
    OFFSET 0 8.597 -4.6522
    CHANNELS 3 Zrotation Xrotation Yrotation
    JOINT Spine1
    {
      OFFSET 0 7.8454 0.4098
      CHANNELS 3 Zrotation Xrotation Yrotation
      JOINT Spine2
      {
        OFFSET 0 9.7078 -2.1609
        CHANNELS 3 Zrotation Xrotation Yrotation
        JOINT Neck
        {
          OFFSET 0 21.8761 -0.4549
          CHANNELS 3 Zrotation Xrotation Yrotation
          JOINT Head
          {
            OFFSET 0 12.3537 3.3602
            CHANNELS 3 Zrotation Xrotation Yrotation
            End Site
            {
              OFFSET 0.0001 18.9506 0.5657
            }
          }
        }
        JOINT LeftShoulder
        {
          OFFSET 2.2086 21.1115 7.2329
          CHANNELS 3 Zrotation Xrotation Yrotation
          JOINT LeftArm
          {
            OFFSET 13.1193 3.0282 -4.8998
            CHANNELS 3 Zrotation Xrotation Yrotation
            JOINT LeftForeArm
            {
              OFFSET 27.4081 -0.0973053 -0.2375
              CHANNELS 3 Zrotation Xrotation Yrotation
              JOINT LeftHand
              {
                OFFSET 22.8641 0.0662994 -0.1369
                CHANNELS 3 Zrotation Xrotation Yrotation
                JOINT LeftHandIndex1
                {
                  OFFSET 8.8614 0.775009 2.4612
                  CHANNELS 3 Zrotation Xrotation Yrotation
                  JOINT LeftHandIndex2
                  {
                    OFFSET 3.3146 -0.808304 0.5841
                    CHANNELS 3 Zrotation Xrotation Yrotation
                    JOINT LeftHandIndex3
                    {
                      OFFSET 2.2628 -0.552002 0.3989
                      CHANNELS 3 Zrotation Xrotation Yrotation
                      End Site
                      {
                        OFFSET 1.6102 -0.4807 0.2612
                      }
                    }
                  }
                }
                JOINT LeftHandMiddle1
                {
                  OFFSET 8.9937 0.895004 0.2143
                  CHANNELS 3 Zrotation Xrotation Yrotation
                  JOINT LeftHandMiddle2
                  {
                    OFFSET 4.0984 0.0113983 -0.0242
                    CHANNELS 3 Zrotation Xrotation Yrotation
                    JOINT LeftHandMiddle3
                    {
                      OFFSET 2.2716 0.00689697 -0.0138001
                      CHANNELS 3 Zrotation Xrotation Yrotation
                      End Site
                      {
                        OFFSET 2.0404 -0.1441 0.0027
                      }
                    }
                  }
                }
                JOINT LeftHandRing1
                {
                  OFFSET 8.5234 0.597198 -2.0164
                  CHANNELS 3 Zrotation Xrotation Yrotation
                  JOINT LeftHandRing2
                  {
                    OFFSET 3.7188 -0.188293 -0.2328
                    CHANNELS 3 Zrotation Xrotation Yrotation
                    JOINT LeftHandRing3
                    {
                      OFFSET 2.1191 -0.106598 -0.1332
                      CHANNELS 3 Zrotation Xrotation Yrotation
                      End Site
                      {
                        OFFSET 1.8737 -0.2304 -0.0886
                      }
                    }
                  }
                }
                JOINT LeftHandPinky1
                {
                  OFFSET 7.9094 -0.601089 -3.4825
                  CHANNELS 3 Zrotation Xrotation Yrotation
                  JOINT LeftHandPinky2
                  {
                    OFFSET 2.2874 -0.477005 -0.6314
                    CHANNELS 3 Zrotation Xrotation Yrotation
                    JOINT LeftHandPinky3
                    {
                      OFFSET 1.6774 -0.349396 -0.4633
                      CHANNELS 3 Zrotation Xrotation Yrotation
                      End Site
                      {
                        OFFSET 1.4888 -0.4091 -0.3416
                      }
                    }
                  }
                }
                JOINT LeftHandThumb1
                {
                  OFFSET 1.833 -1.3875 1.3896
                  CHANNELS 3 Zrotation Xrotation Yrotation
                  JOINT LeftHandThumb2
                  {
                    OFFSET 3.4129 -1.121 2.5732
                    CHANNELS 3 Zrotation Xrotation Yrotation
                    JOINT LeftHandThumb3
                    {
                      OFFSET 2.2474 -0.804199 1.6192
                      CHANNELS 3 Zrotation Xrotation Yrotation
                      End Site
                      {
                        OFFSET 1.6527 -0.5689 1.1317
                      }
                    }
                  }
                }
              }
            }
          }
        }
        JOINT RightShoulder
        {
          OFFSET -2.2086 21.1115 7.2329
          CHANNELS 3 Zrotation Xrotation Yrotation
          JOINT RightArm
          {
            OFFSET -13.1216 3.0287 -4.9007
            CHANNELS 3 Zrotation Xrotation Yrotation
            JOINT RightForeArm
            {
              OFFSET -27.4081 -0.0973053 -0.2375
              CHANNELS 3 Zrotation Xrotation Yrotation
              JOINT RightHand
              {
                OFFSET -22.8641 0.0664063 -0.1369
                CHANNELS 3 Zrotation Xrotation Yrotation
                JOINT RightHandIndex1
                {
                  OFFSET -8.8614 0.774994 2.4612
                  CHANNELS 3 Zrotation Xrotation Yrotation
                  JOINT RightHandIndex2
                  {
                    OFFSET -3.3146 -0.808304 0.5841
                    CHANNELS 3 Zrotation Xrotation Yrotation
                    JOINT RightHandIndex3
                    {
                      OFFSET -2.2628 -0.552002 0.3989
                      CHANNELS 3 Zrotation Xrotation Yrotation
                      End Site
                      {
                        OFFSET -1.6102 -0.4807 0.2612
                      }
                    }
                  }
                }
                JOINT RightHandMiddle1
                {
                  OFFSET -8.9937 0.894989 0.2143
                  CHANNELS 3 Zrotation Xrotation Yrotation
                  JOINT RightHandMiddle2
                  {
                    OFFSET -4.0984 0.0113983 -0.0242
                    CHANNELS 3 Zrotation Xrotation Yrotation
                    JOINT RightHandMiddle3
                    {
                      OFFSET -2.2716 0.00691223 -0.0138001
                      CHANNELS 3 Zrotation Xrotation Yrotation
                      End Site
                      {
                        OFFSET -2.0404 -0.1441 0.0027
                      }
                    }
                  }
                }
                JOINT RightHandRing1
                {
                  OFFSET -8.5234 0.597198 -2.0164
                  CHANNELS 3 Zrotation Xrotation Yrotation
                  JOINT RightHandRing2
                  {
                    OFFSET -3.7188 -0.188309 -0.2328
                    CHANNELS 3 Zrotation Xrotation Yrotation
                    JOINT RightHandRing3
                    {
                      OFFSET -2.1191 -0.106598 -0.1332
                      CHANNELS 3 Zrotation Xrotation Yrotation
                      End Site
                      {
                        OFFSET -1.8737 -0.2304 -0.0886
                      }
                    }
                  }
                }
                JOINT RightHandPinky1
                {
                  OFFSET -7.9094 -0.601105 -3.4825
                  CHANNELS 3 Zrotation Xrotation Yrotation
                  JOINT RightHandPinky2
                  {
                    OFFSET -2.2874 -0.477005 -0.6314
                    CHANNELS 3 Zrotation Xrotation Yrotation
                    JOINT RightHandPinky3
                    {
                      OFFSET -1.6774 -0.349396 -0.4633
                      CHANNELS 3 Zrotation Xrotation Yrotation
                      End Site
                      {
                        OFFSET -1.4888 -0.4091 -0.3416
                      }
                    }
                  }
                }
                JOINT RightHandThumb1
                {
                  OFFSET -1.833 -1.38751 1.3896
                  CHANNELS 3 Zrotation Xrotation Yrotation
                  JOINT RightHandThumb2
                  {
                    OFFSET -3.41299 -1.12099 2.5732
                    CHANNELS 3 Zrotation Xrotation Yrotation
                    JOINT RightHandThumb3
                    {
                      OFFSET -2.24741 -0.804108 1.6192
                      CHANNELS 3 Zrotation Xrotation Yrotation
                      End Site
                      {
                        OFFSET -1.6527 -0.5689 1.1317
                      }
                    }
                  }
                }
              }
            }
          }
        }
      }
    }
  }
  JOINT RightUpLeg
  {
    OFFSET -9.1966 3.8861 -0.7581
    CHANNELS 3 Zrotation Xrotation Yrotation
    JOINT RightLeg
    {
      OFFSET -0.7359 -41.0265 0
      CHANNELS 3 Zrotation Xrotation Yrotation
      JOINT RightFoot
      {
        OFFSET 0 -40.2855 0
        CHANNELS 3 Zrotation Xrotation Yrotation
        JOINT RightToeBase
        {
          OFFSET 0 -5.6122 11.7359
          CHANNELS 3 Zrotation Xrotation Yrotation
          End Site
          {
            OFFSET 0 0 7.8731
          }
        }
      }
    }
  }
  JOINT LeftUpLeg
  {
    OFFSET 9.1965 3.8864 -0.7581
    CHANNELS 3 Zrotation Xrotation Yrotation
    JOINT LeftLeg
    {
      OFFSET 0.7359 -41.0268 0
      CHANNELS 3 Zrotation Xrotation Yrotation
      JOINT LeftFoot
      {
        OFFSET 0 -40.2855 0
        CHANNELS 3 Zrotation Xrotation Yrotation
        JOINT LeftToeBase
        {
          OFFSET 0 -5.6122 11.7359
          CHANNELS 3 Zrotation Xrotation Yrotation
          End Site
          {
            OFFSET 0 0 7.8731
          }
        }
      }
    }
  }
}
MOTION
Frames:	7
Frame Time:	0.0333333
5.84602e-005 68.8428 3.50346 0 0 -0 0 0 -0 0 0 -0 0 0 -0 0 0 -0 0 0 -0 0 0 -0 0 0 -0 0 0 -0 0 0 -0 0 0 -0 0 0 -0 0 0 -0 0 0 -0 -0.0146107 -8.87603e-005 -2.63497e-007 2.99804e-018 -2.42657e-020 -1.42182e-022 0 0 -0 -0.0187562 -0.001176 5.858e-005 5.06224e-018 3.88251e-019 1.21329e-020 0 0 -0 -0.012269 -0.00324817 0.000675346 -1.74678e-018 3.88251e-019 -0 0 0 -0 0 0 -0 0 0 -0 0 0 -0 0 0 -0 0 0 -0 0 0 -0 0 0 -0 0 0 -0 0 0 -0 0 0 -0 0.0149955 -9.10982e-005 2.64101e-007 -9.69331e-018 1.21329e-020 -4.7394e-023 0 0 -0 0.0189956 -0.00119102 -5.96516e-005 -5.41541e-019 0 2.42657e-020 0 0 -0 0.0122698 -0.00324857 -0.000673756 -2.00796e-019 0 -1.94126e-019 0 0 -0 0 0 -0 0 0 -0 3.39842 1.33031 -0.0637918 -5.65207e-008 0.834868 -0.000436188 -3.39935 -2.16518 -0.0642563 -8.89002e-024 -1.18485e-023 -1.48106e-024 -3.39844 1.35642 0.0640283 -3.18788e-007 0.782166 -0.000588827 3.39931 -2.13858 0.0634662 1.1399e-023 0 -0 
-6.45718 23.1326 -11.7686 0 10.9996 -0 -0.866585 -2.63666 3.06415 -1.59323 -5.31566 6.09783 -1.59323 -5.31566 6.09783 13.997 2.18277e-005 -4.87629e-005 -7.88717e-007 2.20747e-007 -3.40554e-006 34.4037 29.3837 -86.4492 -37.6326 -15.0385 -11.7677 -56.3316 -24.6154 -90.6536 -23.5124 50.3767 -0.201747 8.50676e-007 -3.00454e-007 -5.69262e-007 3.50331e-007 1.64154e-006 -1.49337e-006 1.60075e-007 -1.82182e-006 1.15181e-006 8.50676e-007 -3.00454e-007 -5.69262e-007 -0.0146748 -9.29915e-005 -1.81677e-006 -3.18055e-015 1.59028e-015 -0 8.50676e-007 -3.00454e-007 -5.69262e-007 -0.0187882 -0.00117266 6.01375e-005 6.36111e-015 -7.95139e-015 3.18055e-015 8.50676e-007 -3.00454e-007 -5.69262e-007 -0.012246 -0.00323634 0.000670922 -0 0 4.77083e-015 8.50676e-007 -3.00454e-007 -5.69262e-007 3.50331e-007 1.64154e-006 -1.49337e-006 1.60075e-007 -1.82182e-006 1.15181e-006 15.7632 5.23235 11.8445 67.0849 2.46464 18.7522 -14.698 -5.60992 34.856 56.0626 24.8102 -7.28611 -1.23477e-007 -4.78342e-007 4.43518e-006 1.30348e-031 -2.38542e-015 3.13086e-015 -0 0 3.27995e-015 -1.23477e-007 -4.78342e-007 4.43518e-006 0.0150219 -8.84927e-005 9.29047e-006 1.59028e-015 -1.98785e-015 8.84592e-015 -1.23477e-007 -4.78342e-007 4.43518e-006 0.0190237 -0.00119163 -5.84107e-005 -4.15528e-032 1.98785e-016 1.19768e-014 -1.23477e-007 -4.78342e-007 4.43518e-006 0.0122699 -0.00325393 -0.000674337 1.07899e-006 2.31618e-007 -7.41472e-007 -1.23477e-007 -4.78342e-007 4.43518e-006 1.30348e-031 -2.38542e-015 3.13086e-015 -0 0 3.27995e-015 -97.4497 -44.8768 -124.858 -159.933 58.974 149.412 13.6314 -31.1224 12.1089 3.33906e-007 -7.74538e-007 1.18673e-007 15.1283 -22.535 -26.7886 -167.559 74.1794 -178.424 -1.58014 53.1709 -31.3864 4.96504e-007 2.34086e-006 -1.45715e-006 
-6.46003 22.7035 -11.2404 0 8.44959 -0 -0.777773 -1.89293 3.07871 -1.45385 -3.82474 6.13655 -1.45385 -3.82474 6.13655 13.9974 -0.401699 0.10008 -0.0884986 -0.1905 0.0829344 33.4004 27.3316 -85.1981 -37.3742 -15.1367 -11.7355 -56.335 -24.811 -90.6249 -23.9752 49.1611 0.289395 -1.70723e-007 1.79474e-006 -1.15272e-006 -4.01357e-007 5.53051e-006 -2.58553e-006 6.36111e-015 -3.18055e-015 -1.59028e-015 -1.70723e-007 1.79474e-006 -1.15272e-006 -0.0146258 -8.8452e-005 -1.89683e-006 6.36111e-015 -6.36111e-015 -6.36111e-015 -1.70723e-007 1.79474e-006 -1.15272e-006 -0.0188037 -0.0011698 6.23081e-005 -2.42765e-030 7.95139e-015 1.74931e-014 -1.70723e-007 1.79474e-006 -1.15272e-006 -0.0122706 -0.00324319 0.000672466 6.36111e-015 3.18055e-015 -0 -1.70723e-007 1.79474e-006 -1.15272e-006 -4.01357e-007 5.53051e-006 -2.58553e-006 6.36111e-015 -3.18055e-015 -1.59028e-015 14.6651 2.78284 12.2221 67.2754 2.53522 18.8505 -14.698 -5.60993 34.8559 56.8393 23.6119 -7.80636 -1.21107e-007 -4.92877e-007 4.43259e-006 -1.13843e-006 -5.85568e-007 1.07787e-006 1.13843e-006 5.85568e-007 -1.07787e-006 -1.21107e-007 -4.92877e-007 4.43259e-006 0.0149758 -9.29458e-005 1.45503e-006 1.13838e-006 5.85427e-007 -1.07795e-006 -1.21107e-007 -4.92877e-007 4.43259e-006 0.0189777 -0.00118956 -6.03739e-005 1.13836e-006 5.85394e-007 -1.07798e-006 -1.21107e-007 -4.92877e-007 4.43259e-006 0.0122558 -0.00324212 -0.000671159 1.13835e-006 5.85469e-007 -1.07796e-006 -1.21107e-007 -4.92877e-007 4.43259e-006 -1.13843e-006 -5.85568e-007 1.07787e-006 1.13843e-006 5.85568e-007 -1.07787e-006 -95.4544 -44.1775 -121.795 -160.216 58.237 149.614 13.3451 -31.3686 12.8367 -1.1621e-006 1.33871e-008 -4.33225e-007 16.4907 -20.0198 -26.2782 -167.529 74.2149 -178.436 0.777366 52.3354 -33.0914 6.34327e-007 8.80342e-006 -9.61963e-007 
-6.46238 22.2903 -10.7137 0 5.87846 -0 -0.687147 -1.13516 3.0902 -1.31248 -2.30559 6.16843 -1.31248 -2.30559 6.16843 13.9985 -0.80369 0.20026 -0.176783 -0.381249 0.165625 32.4582 25.2465 -84.0009 -37.1156 -15.2348 -11.7028 -56.3384 -25.0067 -90.5961 -24.4124 47.9407 0.755066 1.61542e-007 1.65124e-006 -1.38049e-006 3.18606e-007 1.73114e-006 -1.00098e-006 3.40967e-007 -1.20534e-007 -2.26465e-007 1.61542e-007 1.65124e-006 -1.38049e-006 -0.0146271 -8.79615e-005 -1.78501e-007 3.40968e-007 -1.20505e-007 -2.26481e-007 1.61542e-007 1.65124e-006 -1.38049e-006 -0.0187472 -0.00117902 6.67207e-005 3.40967e-007 -1.20497e-007 -2.26488e-007 1.61542e-007 1.65124e-006 -1.38049e-006 -0.0122246 -0.00323825 0.000675245 3.40961e-007 -1.20511e-007 -2.26488e-007 1.61542e-007 1.65124e-006 -1.38049e-006 3.18606e-007 1.73114e-006 -1.00098e-006 3.40967e-007 -1.20534e-007 -2.26465e-007 13.5772 0.30973 12.5542 67.4657 2.60614 18.9486 -14.698 -5.60992 34.856 57.5991 22.4044 -8.30556 2.41386e-033 2.78299e-015 -4.96962e-017 1.81039e-031 2.78299e-015 -3.72721e-015 1.97936e-031 2.78299e-015 -4.07509e-015 2.41386e-033 2.78299e-015 -4.96962e-017 0.0150316 -9.23807e-005 1.29608e-006 -1.59028e-015 -3.97569e-015 1.65488e-014 2.41386e-033 2.78299e-015 -4.96962e-017 0.0189646 -0.00118928 -6.37961e-005 -1.59028e-015 0 1.3418e-015 2.41386e-033 2.78299e-015 -4.96962e-017 0.0122779 -0.00325543 -0.000684632 -1.59028e-015 2.38542e-015 -8.69683e-015 2.41386e-033 2.78299e-015 -4.96962e-017 1.81039e-031 2.78299e-015 -3.72721e-015 1.97936e-031 2.78299e-015 -4.07509e-015 -93.5269 -43.394 -118.785 -160.487 57.4988 149.805 13.0617 -31.6167 13.5654 -2.35645e-007 -1.07027e-006 2.8903e-006 17.8125 -17.4869 -25.8394 -167.5 74.2498 -178.449 3.05489 51.4564 -34.7118 3.82814e-006 8.34698e-007 4.99439e-008 
-6.46417 21.893 -10.1895 0 3.28854 -0 -0.594786 -0.364607 3.09837 -1.16903 -0.760829 6.19302 -1.16903 -0.760829 6.19302 14.0002 -1.20609 0.300594 -0.26485 -0.572244 0.248071 31.5736 23.1315 -82.8537 -36.8568 -15.3328 -11.6696 -56.3416 -25.2024 -90.5673 -24.8257 46.7159 1.19724 -1.70614e-007 6.03399e-008 1.12996e-007 -3.41227e-007 1.2068e-007 2.25993e-007 -3.41227e-007 1.2068e-007 2.25993e-007 -1.70614e-007 6.03399e-008 1.12996e-007 -0.0146189 -8.42813e-005 -6.90677e-007 -3.5849e-007 1.98401e-006 -5.49015e-007 -1.70614e-007 6.03399e-008 1.12996e-007 -0.018779 -0.00116816 6.15057e-005 -3.5886e-007 1.98394e-006 -5.48934e-007 -1.70614e-007 6.03399e-008 1.12996e-007 -0.0123673 -0.00327572 0.000686574 -3.41221e-007 1.20657e-007 2.26016e-007 -1.70614e-007 6.03399e-008 1.12996e-007 -3.41227e-007 1.2068e-007 2.25993e-007 -3.41227e-007 1.2068e-007 2.25993e-007 12.4966 -2.1835 12.8412 67.656 2.67739 19.0465 -14.698 -5.60993 34.856 58.3428 21.1883 -8.78435 -2.27021e-006 -1.18703e-006 2.15735e-006 -1.13511e-006 -5.93514e-007 1.07867e-006 -1.13511e-006 -5.93514e-007 1.07867e-006 -2.27021e-006 -1.18703e-006 2.15735e-006 0.0150035 -9.44184e-005 -2.8334e-006 -1.13506e-006 -5.93373e-007 1.07875e-006 -2.27021e-006 -1.18703e-006 2.15735e-006 0.0189762 -0.00119505 -5.69425e-005 -1.13504e-006 -5.93339e-007 1.07878e-006 -2.27021e-006 -1.18703e-006 2.15735e-006 0.0122763 -0.0032554 -0.000667754 1.53295e-008 -2.99573e-007 3.60643e-007 -2.27021e-006 -1.18703e-006 2.15735e-006 -1.13511e-006 -5.93514e-007 1.07867e-006 -1.13511e-006 -5.93514e-007 1.07867e-006 -91.6754 -42.5296 -115.836 -160.748 56.7597 149.985 12.781 -31.8661 14.2948 -3.32924e-007 7.76044e-007 -1.10261e-007 19.0988 -14.941 -25.4688 -167.47 74.2842 -178.463 5.25314 50.537 -36.2483 -1.40724e-007 -3.20341e-006 -4.56659e-007 
-6.46538 21.5117 -9.66899 0 0.682275 -0 -0.500772 0.417131 3.10311 -1.02343 0.806527 6.20996 -1.02343 0.806529 6.20996 14.003 -1.60843 0.401005 -0.3527 -0.763487 0.330277 30.7433 20.9896 -81.7528 -36.5978 -15.4305 -11.6359 -56.3447 -25.398 -90.5385 -25.2171 45.4873 1.61767 -1.70719e-007 6.04024e-008 1.12804e-007 -5.12156e-007 1.81207e-007 3.38412e-007 -1.70719e-007 6.04025e-008 1.12804e-007 -1.70719e-007 6.04024e-008 1.12804e-007 -0.0146097 -8.30978e-005 -1.45449e-006 -1.70719e-007 6.03881e-008 1.12812e-007 -1.70719e-007 6.04024e-008 1.12804e-007 -0.0187219 -0.00116906 6.09827e-005 -1.70718e-007 6.0384e-008 1.12816e-007 -1.70719e-007 6.04024e-008 1.12804e-007 -0.0122207 -0.0032282 0.000672181 -1.70716e-007 6.03912e-008 1.12815e-007 -1.70719e-007 6.04024e-008 1.12804e-007 -5.12156e-007 1.81207e-007 3.38412e-007 -1.70719e-007 6.04025e-008 1.12804e-007 11.4209 -4.69323 13.0826 67.8462 2.74898 19.1441 -14.698 -5.60993 34.8559 59.0711 19.9644 -9.24333 1.13307e-006 5.9719e-007 -1.07949e-006 4.77083e-015 -1.98785e-015 1.59028e-015 1.13308e-006 5.9719e-007 -1.07949e-006 1.13307e-006 5.9719e-007 -1.07949e-006 0.0150232 -8.79844e-005 9.23584e-007 1.13303e-006 5.97049e-007 -1.07957e-006 1.13307e-006 5.9719e-007 -1.07949e-006 0.0189687 -0.00118654 -6.03034e-005 1.13301e-006 5.97016e-007 -1.0796e-006 1.13307e-006 5.9719e-007 -1.07949e-006 0.0122698 -0.00324997 -0.000675487 1.13301e-006 5.97091e-007 -1.07958e-006 1.13307e-006 5.9719e-007 -1.07949e-006 4.77083e-015 -1.98785e-015 1.59028e-015 1.13308e-006 5.9719e-007 -1.07949e-006 -89.906 -41.5882 -112.955 -160.999 56.0195 150.155 12.5034 -32.1168 15.0247 -3.34926e-007 4.63655e-009 -8.99076e-007 20.3544 -12.3865 -25.1631 -167.442 74.3179 -178.478 7.3733 49.5798 -37.7021 1.47217e-006 3.24735e-006 -8.85386e-007 
-6.46596 21.1461 -9.15339 -0 -1.93776 -0 -0.405202 1.20844 3.10421 -0.875576 2.39323 6.21893 -0.875575 2.39323 6.21893 14.0061 -2.01165 0.501525 -0.440334 -0.954969 0.412251 29.9646 18.8238 -80.6952 -36.3386 -15.5282 -11.6018 -56.3477 -25.5938 -90.5096 -25.5879 44.2552 2.01796 5.12407e-007 -1.81362e-007 -3.37948e-007 -3.41605e-007 1.20908e-007 2.25299e-007 -1.70802e-007 6.04541e-008 1.12649e-007 5.12407e-007 -1.81362e-007 -3.37948e-007 -0.0145655 -8.78559e-005 1.58271e-007 -1.70803e-007 6.04398e-008 1.12657e-007 5.12407e-007 -1.81362e-007 -3.37948e-007 -0.0188053 -0.00117693 6.55198e-005 -1.79374e-007 1.94099e-006 -6.62577e-007 5.12407e-007 -1.81362e-007 -3.37948e-007 -0.0122941 -0.00325401 0.000674636 -1.70799e-007 6.04429e-008 1.12661e-007 5.12407e-007 -1.81362e-007 -3.37948e-007 -3.41605e-007 1.20908e-007 2.25299e-007 -1.70802e-007 6.04541e-008 1.12649e-007 10.3471 -7.21585 13.2782 68.0362 2.82086 19.2415 -14.698 -5.60993 34.856 59.7846 18.7333 -9.68308 2.26167e-006 1.20134e-006 -2.16107e-006 2.26167e-006 1.20134e-006 -2.16107e-006 4.42274e-006 1.86033e-006 1.00601e-007 2.26167e-006 1.20134e-006 -2.16107e-006 0.0150044 -9.62113e-005 -3.99863e-006 4.42281e-006 1.86034e-006 1.00354e-007 2.26167e-006 1.20134e-006 -2.16107e-006 0.0189639 -0.00118677 -6.55883e-005 4.42283e-006 1.86035e-006 1.00247e-007 2.26167e-006 1.20134e-006 -2.16107e-006 0.0122928 -0.0032522 -0.000686037 4.42279e-006 1.86035e-006 1.00273e-007 2.26167e-006 1.20134e-006 -2.16107e-006 2.26167e-006 1.20134e-006 -2.16107e-006 4.42274e-006 1.86033e-006 1.00601e-007 -88.2238 -40.5743 -110.145 -161.241 55.2787 150.314 12.2288 -32.3685 15.7552 1.27022e-006 1.18402e-006 6.15035e-006 21.5835 -9.8279 -24.9196 -167.414 74.3507 -178.494 9.41723 48.5877 -39.0752 9.27815e-008 1.09755e-005 -3.05873e-007 
